<svg xmlns="http://www.w3.org/2000/svg" width="16.782" height="16.363" viewBox="0 0 16.782 16.363"><path d="M5.613,13.738c0,.068-.078.122-.176.122s-.189-.044-.189-.122.078-.122.176-.122S5.613,13.66,5.613,13.738Zm-1.052-.152c-.024.068.044.145.145.166a.159.159,0,0,0,.21-.068c.02-.068-.044-.145-.145-.176A.174.174,0,0,0,4.561,13.586Zm1.5-.058c-.1.024-.166.088-.156.166s.1.112.2.088.166-.088.156-.156S6.155,13.518,6.057,13.528ZM8.283.563A8.113,8.113,0,0,0,0,8.818a8.483,8.483,0,0,0,5.735,8.093c.433.078.585-.189.585-.409s-.01-1.367-.01-2.078c0,0-2.368.508-2.866-1.008,0,0-.386-.985-.941-1.238,0,0-.775-.531.054-.521a1.786,1.786,0,0,1,1.306.873,1.789,1.789,0,0,0,2.467.707,1.881,1.881,0,0,1,.541-1.14c-1.891-.21-3.8-.484-3.8-3.739a2.564,2.564,0,0,1,.8-1.993,3.2,3.2,0,0,1,.088-2.3c.707-.22,2.335.914,2.335.914a7.993,7.993,0,0,1,4.25,0s1.627-1.137,2.335-.914a3.2,3.2,0,0,1,.088,2.3,2.63,2.63,0,0,1,.873,1.993c0,3.265-1.993,3.526-3.884,3.739a2,2,0,0,1,.575,1.57c0,1.14-.01,2.551-.01,2.829,0,.22.156.487.585.409a8.4,8.4,0,0,0,5.678-8.087A8.3,8.3,0,0,0,8.283.563ZM3.289,12.232c-.044.034-.034.112.024.176s.132.078.176.034.034-.112-.024-.176S3.333,12.188,3.289,12.232Zm-.365-.274c-.024.044.01.1.078.132a.1.1,0,0,0,.145-.024c.024-.044-.01-.1-.078-.132S2.947,11.925,2.923,11.958Zm1.1,1.2c-.054.044-.034.145.044.21s.176.088.22.034.024-.145-.044-.21S4.064,13.109,4.02,13.163Zm-.386-.5c-.054.034-.054.122,0,.2s.145.112.189.078a.154.154,0,0,0,0-.21C3.776,12.655,3.688,12.622,3.634,12.666Z" transform="translate(0 -0.563)"/></svg>