<svg xmlns="http://www.w3.org/2000/svg" width="22.985" height="22.985" viewBox="0 0 22.985 22.985"><path d="M12.055.563A11.492,11.492,0,1,0,23.547,12.055,11.505,11.505,0,0,0,12.055.563Zm7.6,5.3a9.769,9.769,0,0,1,2.217,6.115,22.94,22.94,0,0,0-6.835-.316c-.267-.651-.518-1.223-.863-1.928A13.076,13.076,0,0,0,19.653,5.862ZM18.562,4.727a11.083,11.083,0,0,1-5.145,3.546A52.4,52.4,0,0,0,9.754,2.526,9.791,9.791,0,0,1,18.562,4.727ZM7.881,3.186a62.634,62.634,0,0,1,3.639,5.677,36.614,36.614,0,0,1-9.075,1.2A9.852,9.852,0,0,1,7.881,3.186ZM2.239,12.07c0-.1,0-.2.005-.3a36.21,36.21,0,0,0,10.088-1.4c.281.55.549,1.108.8,1.666a15.2,15.2,0,0,0-8.366,6.594A9.777,9.777,0,0,1,2.239,12.07ZM6.03,19.814A13.807,13.807,0,0,1,13.8,13.662a40.8,40.8,0,0,1,2.094,7.444,9.8,9.8,0,0,1-9.86-1.292Zm11.51.393a42.367,42.367,0,0,0-1.907-7,14.408,14.408,0,0,1,6.114.42,9.833,9.833,0,0,1-4.207,6.579Z" transform="translate(-0.563 -0.563)"/></svg>