<svg xmlns="http://www.w3.org/2000/svg" width="20.471" height="20.471" viewBox="0 0 20.471 20.471"><path d="M19.009,2.25H1.458A1.469,1.469,0,0,0,0,3.726V21.245a1.469,1.469,0,0,0,1.458,1.476H19.009a1.472,1.472,0,0,0,1.462-1.476V3.726A1.472,1.472,0,0,0,19.009,2.25ZM6.187,19.8H3.153V10.027H6.192V19.8ZM4.67,8.693A1.759,1.759,0,1,1,6.429,6.934,1.76,1.76,0,0,1,4.67,8.693ZM17.56,19.8H14.526V15.044c0-1.133-.023-2.591-1.576-2.591-1.581,0-1.823,1.234-1.823,2.509V19.8H8.092V10.027H11v1.334h.041a3.2,3.2,0,0,1,2.874-1.576c3.071,0,3.642,2.024,3.642,4.656Z" transform="translate(0 -2.25)"/></svg>