<svg xmlns="http://www.w3.org/2000/svg" width="17.628" height="14.916" viewBox="0 0 17.628 14.916"><g transform="translate(-3.375 -5.625)"><path d="M14.024,25.767a1.7,1.7,0,0,1,3.11,0h3.191a.68.68,0,0,1,.678.678h0a.68.68,0,0,1-.678.678H17.134a1.7,1.7,0,0,1-3.11,0H4.053a.68.68,0,0,1-.678-.678h0a.68.68,0,0,1,.678-.678Z" transform="translate(0 -7.599)"/><path d="M7.244,16.2a1.7,1.7,0,0,1,3.11,0h9.971a.68.68,0,0,1,.678.678h0a.68.68,0,0,1-.678.678H10.354a1.7,1.7,0,0,1-3.11,0H4.053a.68.68,0,0,1-.678-.678h0a.68.68,0,0,1,.678-.678Z" transform="translate(0 -3.799)"/><path d="M14.024,6.642a1.7,1.7,0,0,1,3.11,0h3.191A.68.68,0,0,1,21,7.32h0A.68.68,0,0,1,20.325,8H17.134a1.7,1.7,0,0,1-3.11,0H4.053a.68.68,0,0,1-.678-.678h0a.68.68,0,0,1,.678-.678Z"/></g></svg>